<?xml version="1.0" encoding="utf-8"?>
<!-- Generator: Adobe Illustrator 24.2.3, SVG Export Plug-In . SVG Version: 6.00 Build 0)  -->
<svg version="1.1" id="Capa_1" xmlns="http://www.w3.org/2000/svg" xmlns:xlink="http://www.w3.org/1999/xlink" x="0px" y="0px"
	 width="80px" height="80px" viewBox="0 0 80 80" style="enable-background:new 0 0 80 80;" xml:space="preserve">
<style type="text/css">
	.st0{opacity:0.15;fill:url(#SVGID_1_);}
	.st1{fill:#6A2A83;}
</style>
<g>
	<g>
		<linearGradient id="SVGID_1_" gradientUnits="userSpaceOnUse" x1="12.2548" y1="43.4358" x2="74.3876" y2="43.4358">
			<stop  offset="0" style="stop-color:#E21982"/>
			<stop  offset="0.4529" style="stop-color:#A52283"/>
			<stop  offset="0.8153" style="stop-color:#7A2883"/>
			<stop  offset="1" style="stop-color:#6A2A83"/>
		</linearGradient>
		<path class="st0" d="M74.3,50.1c0,0.5-0.1,0.9-0.2,1.4c0,0.1,0,0.2-0.1,0.3c-0.4,1.5-1.1,2.9-2.2,4.2c-0.1,0.1-0.1,0.2-0.2,0.2
			c-7,8.6-26.1,12.5-41.6,6c-0.1-0.1-0.3-0.1-0.4-0.2c-1.3-0.6-2.6-1.2-3.8-1.9c-6-3.4-9.8-8.1-11.9-13c0,0,0,0,0,0
			c-0.1-0.2-0.2-0.5-0.3-0.7c-3.1-8.5-0.8-17.6,6-22.2c0.1-0.1,0.2-0.1,0.2-0.2c1.7-1.1,3.7-1.9,5.9-2.4c0.5-0.1,1-0.2,1.5-0.2
			c0.1,0,0.2,0,0.3,0c7.2-0.7,12.5,3.6,16.9,8.3c0.1,0.1,0.1,0.1,0.2,0.2c1.5,1.6,2.8,3.2,4.1,4.6c0.1,0.1,0.1,0.1,0.2,0.2
			c3,3.3,5.5,5.6,8.1,4.5C66.7,35.3,75.5,37.8,74.3,50.1z"/>
	</g>
	<g>
		<path class="st1" d="M12,30.8h26.7c1.2,0,2.1-0.9,2.1-2.1v-7.9c0-1.2-0.9-2.1-2.1-2.1H12c-1.2,0-2.1,0.9-2.1,2.1v7.9
			C9.9,29.8,10.9,30.8,12,30.8z M11.4,20.7c0-0.3,0.3-0.6,0.6-0.6h26.7c0.3,0,0.6,0.3,0.6,0.6v7.9c0,0.3-0.3,0.6-0.6,0.6H12
			c-0.3,0-0.6-0.3-0.6-0.6V20.7z"/>
		<path class="st1" d="M34.7,27.4c0-0.4-0.3-0.7-0.7-0.7c-0.4,0-0.7,0.3-0.7,0.7c0,0.4,0.3,0.7,0.7,0.7
			C34.4,28.1,34.7,27.8,34.7,27.4z"/>
		<path class="st1" d="M33.1,22.6c0.7-0.5,2.1-0.2,2.1,0.6c0,0.5-0.4,0.8-1.2,0.9c-0.4,0-0.6,0.3-0.6,0.7l0,0.8
			c0,0.3,0.3,0.5,0.6,0.5c0.3,0,0.5-0.2,0.6-0.5l0-0.5c1.1-0.2,1.8-0.8,1.8-1.9c0-2.6-4.1-2.3-4.1-1.1
			C32.3,22.6,32.8,22.8,33.1,22.6z"/>
		<path class="st1" d="M14.3,23.6h14.6c0.4,0,0.7-0.3,0.7-0.7c0-0.4-0.3-0.7-0.7-0.7H14.3c-0.4,0-0.7,0.3-0.7,0.7
			C13.5,23.3,13.9,23.6,14.3,23.6z"/>
		<path class="st1" d="M14.3,27.2h14.6c0.4,0,0.7-0.3,0.7-0.7s-0.3-0.7-0.7-0.7H14.3c-0.4,0-0.7,0.3-0.7,0.7S13.9,27.2,14.3,27.2z"
			/>
		<path class="st1" d="M9.9,43.8c0,1.2,0.9,2.1,2.1,2.1h26.7c1.2,0,2.1-0.9,2.1-2.1v-7.9c0-1.2-0.9-2.1-2.1-2.1H12
			c-1.2,0-2.1,0.9-2.1,2.1V43.8z M11.4,35.9c0-0.3,0.3-0.6,0.6-0.6h26.7c0.3,0,0.6,0.3,0.6,0.6v7.9c0,0.3-0.3,0.6-0.6,0.6H12
			c-0.3,0-0.6-0.3-0.6-0.6V35.9z"/>
		<path class="st1" d="M34.7,42.6c0-0.4-0.3-0.7-0.7-0.7c-0.4,0-0.7,0.3-0.7,0.7c0,0.4,0.3,0.7,0.7,0.7C34.4,43.3,34.7,43,34.7,42.6
			z"/>
		<path class="st1" d="M33.1,37.8c0.7-0.5,2.1-0.2,2.1,0.6c0,0.5-0.4,0.8-1.2,0.9c-0.4,0-0.6,0.3-0.6,0.7l0,0.8
			c0,0.3,0.3,0.5,0.6,0.5c0.3,0,0.5-0.2,0.6-0.5l0-0.5c1.1-0.2,1.8-0.8,1.8-1.9c0-2.6-4.1-2.3-4.1-1.1C32.3,37.7,32.8,38,33.1,37.8z
			"/>
		<path class="st1" d="M14.3,38.8h14.6c0.4,0,0.7-0.3,0.7-0.7c0-0.4-0.3-0.7-0.7-0.7H14.3c-0.4,0-0.7,0.3-0.7,0.7
			C13.5,38.5,13.9,38.8,14.3,38.8z"/>
		<path class="st1" d="M14.3,42.4h14.6c0.4,0,0.7-0.3,0.7-0.7c0-0.4-0.3-0.7-0.7-0.7H14.3c-0.4,0-0.7,0.3-0.7,0.7
			C13.5,42,13.9,42.4,14.3,42.4z"/>
		<path class="st1" d="M36.4,53.5c0-2-2.5-2.4-3.9-1.6c-0.5,0.3-0.3,1,0.3,1c0.1,0,0.2,0,0.3-0.1c0.7-0.5,2.1-0.2,2.1,0.6
			c0,0.5-0.4,0.8-1.2,0.9c-0.4,0-0.6,0.3-0.6,0.7l0,0.8c0,0.3,0.3,0.5,0.6,0.5c0.3,0,0.5-0.2,0.6-0.5l0-0.5
			C35.7,55.3,36.4,54.7,36.4,53.5z"/>
		<path class="st1" d="M34.7,57.7c0-0.4-0.3-0.7-0.7-0.7c-0.4,0-0.7,0.3-0.7,0.7c0,0.4,0.3,0.7,0.7,0.7
			C34.4,58.4,34.7,58.1,34.7,57.7z"/>
		<path class="st1" d="M28.9,52.5H14.3c-0.4,0-0.7,0.3-0.7,0.7c0,0.4,0.3,0.7,0.7,0.7h14.6c0.4,0,0.7-0.3,0.7-0.7
			C29.6,52.8,29.3,52.5,28.9,52.5z"/>
		<path class="st1" d="M28.9,56H14.3c-0.4,0-0.7,0.3-0.7,0.7c0,0.4,0.3,0.7,0.7,0.7h14.6c0.4,0,0.7-0.3,0.7-0.7
			C29.6,56.4,29.3,56,28.9,56z"/>
		<path class="st1" d="M9.9,59c0,1.2,0.9,2.1,2.1,2.1h26.7c1.2,0,2.1-0.9,2.1-2.1v-2.4c0-0.4-0.3-0.7-0.7-0.7
			c-0.4,0-0.7,0.3-0.7,0.7V59c0,0.3-0.3,0.6-0.6,0.6H12c-0.3,0-0.6-0.3-0.6-0.6V51c0-0.3,0.3-0.6,0.6-0.6h26.7
			c0.3,0,0.6,0.3,0.6,0.6v2.8c0,0.4,0.3,0.7,0.7,0.7c0.4,0,0.7-0.3,0.7-0.7V51c0-1.2-0.9-2.1-2.1-2.1H12c-1.2,0-2.1,0.9-2.1,2.1V59z
			"/>
		<path class="st1" d="M41.8,14.5H9c-1.8,0-3.3,1.5-3.3,3.3v2c0,0.4,0.3,0.7,0.7,0.7c0.4,0,0.7-0.3,0.7-0.7v-2c0-1,0.8-1.9,1.9-1.9
			h32.8c1,0,1.9,0.8,1.9,1.9v44c0,1-0.8,1.9-1.9,1.9H9c-1,0-1.9-0.8-1.9-1.9V22.6c0-0.4-0.3-0.7-0.7-0.7c-0.4,0-0.7,0.3-0.7,0.7
			v39.2c0,1.8,1.5,3.3,3.3,3.3h32.8c1.8,0,3.3-1.5,3.3-3.3v-44C45.1,16,43.6,14.5,41.8,14.5z"/>
	</g>
</g>
</svg>
