<?xml version="1.0" encoding="utf-8"?>
<!-- Generator: Adobe Illustrator 24.2.3, SVG Export Plug-In . SVG Version: 6.00 Build 0)  -->
<svg version="1.1" id="Capa_1" xmlns="http://www.w3.org/2000/svg" xmlns:xlink="http://www.w3.org/1999/xlink" x="0px" y="0px"
	 width="80px" height="80px" viewBox="0 0 80 80" style="enable-background:new 0 0 80 80;" xml:space="preserve">
<style type="text/css">
	.st0{opacity:0.15;fill:url(#SVGID_1_);}
	.st1{fill:#6A2A83;}
</style>
<g>
	<g>
		<linearGradient id="SVGID_1_" gradientUnits="userSpaceOnUse" x1="16.106" y1="40" x2="74.7006" y2="40">
			<stop  offset="0" style="stop-color:#E21982"/>
			<stop  offset="0.4529" style="stop-color:#A52283"/>
			<stop  offset="0.8153" style="stop-color:#7A2883"/>
			<stop  offset="1" style="stop-color:#6A2A83"/>
		</linearGradient>
		<path class="st0" d="M73.5,57.1c0,0.1-0.1,0.2-0.2,0.3c-2.5,4.8-8.2,7-13.9,5.6c-2.1-0.6-4-1.6-6.1-2.5c-0.2-0.1-0.4-0.1-0.6-0.2
			c-3.1-1.1-6.8-1.6-13,0.5c-9.5,3.3-17.6,4.4-21.7-1.7C18,59.1,18,59,17.9,58.9c-0.5-0.9-1-1.9-1.4-3c-1.1-3.4,0-7.2,2.4-10.9
			c0.1-0.1,0.2-0.2,0.2-0.4c1.7-2.6,4.1-5,6.7-7.2c0.3-0.2,0.6-0.5,0.8-0.7c0.1-0.1,0.2-0.2,0.2-0.2c1.5-1.5,2.7-3.2,3.7-5
			c0-0.1,0.1-0.2,0.1-0.2c1.8-3.3,3.1-6.9,4.8-9.4c0.1-0.2,0.3-0.4,0.4-0.6c0.1-0.1,0.1-0.2,0.2-0.3c0.5-0.7,1.1-1.3,1.8-1.8
			c0.1-0.1,0.2-0.1,0.2-0.2c1.7-1.3,3.8-2.1,6.1-2.4c0.1,0,0.2,0,0.3,0c3.5-0.3,7.5,0.7,11.4,3.1c0.1,0.1,0.2,0.1,0.3,0.2
			c2.6,1.6,5.1,3.8,7.5,6.6c0.1,0.1,0.1,0.2,0.2,0.3c2.1,2.5,4.1,5.6,5.8,9.1c0,0.1,0.1,0.2,0.1,0.3c0.6,1.2,1.2,2.5,1.7,3.8
			c0,0.1,0.1,0.2,0.1,0.3c0.4,1,0.8,2.1,1.2,3.2c0,0.1,0.1,0.2,0.1,0.3c0.4,1.2,0.8,2.5,1.1,3.8C75.1,51.2,74.8,54.5,73.5,57.1z"/>
	</g>
	<g id="XMLID_1_">
		<g id="XMLID_2_">
			<path id="XMLID_5_" class="st1" d="M48.9,48.5V23.1c0-1.5-1.2-2.7-2.7-2.7h-6.5v-0.9c0-1.5-1.2-2.7-2.7-2.7s-2.7,1.2-2.7,2.7v0.9
				H19.9v-0.9c0-1.5-1.2-2.7-2.7-2.7s-2.7,1.2-2.7,2.7v0.9H8c-1.5,0-2.7,1.2-2.7,2.7v33.1c0,1.5,1.2,2.7,2.7,2.7h15.2
				c0.5,0,0.9-0.4,0.9-0.9s-0.4-0.9-0.9-0.9H8c-0.5,0-0.9-0.4-0.9-0.9V23.1c0-0.5,0.4-0.9,0.9-0.9h6.5V23c0,1.5,1.2,2.7,2.7,2.7
				s2.7-1.2,2.7-2.7v-0.9h14.5V23c0,1.5,1.2,2.7,2.7,2.7s2.7-1.2,2.7-2.7v-0.9h6.5c0.5,0,0.9,0.4,0.9,0.9v4.4H13.3
				c-0.5,0-0.9,0.4-0.9,0.9s0.4,0.9,0.9,0.9h33.7V47c-0.8-0.5-1.6-0.8-2.5-1.1V32.7c0-0.5-0.4-0.9-0.9-0.9H10.5
				c-0.5,0-0.9,0.4-0.9,0.9v21.1c0,0.5,0.4,0.9,0.9,0.9h23.8c0.1,0.9,0.2,1.7,0.6,2.5h-7.5c-0.5,0-0.9,0.4-0.9,0.9s0.4,0.9,0.9,0.9
				h8.4c1.5,2.2,4,3.6,6.9,3.6c4.6,0,8.4-3.8,8.4-8.4C51,52,50.2,50,48.9,48.5z M18.1,23c0,0.5-0.4,0.9-0.9,0.9
				c-0.5,0-0.9-0.4-0.9-0.9v-3.6c0-0.5,0.4-0.9,0.9-0.9c0.5,0,0.9,0.4,0.9,0.9V23z M37.9,23c0,0.5-0.4,0.9-0.9,0.9
				c-0.5,0-0.9-0.4-0.9-0.9v-3.6c0-0.5,0.4-0.9,0.9-0.9c0.5,0,0.9,0.4,0.9,0.9V23z M42.6,45.7c-0.4,0-0.8,0-1.2,0.1h-3.5v-5.2h4.9
				v5.1C42.7,45.7,42.7,45.7,42.6,45.7z M34.3,52.9h-3v-5.3h4.9v1.2C35.2,49.9,34.5,51.3,34.3,52.9z M11.4,40.6h4.9v5.2h-4.9V40.6z
				 M18,40.6h4.9v5.2H18V40.6z M31.3,40.6h4.9v5.2h-4.9V40.6z M29.5,45.8h-4.9v-5.2h4.9V45.8z M31.3,38.8v-5.3h4.9v5.3H31.3z
				 M29.5,38.8h-4.9v-5.3h4.9V38.8z M22.9,38.8H18v-5.3h4.9V38.8z M22.9,47.6v5.3H18v-5.3H22.9z M24.7,47.6h4.9v5.3h-4.9L24.7,47.6
				L24.7,47.6z M42.8,38.8h-4.9v-5.3h4.9V38.8z M16.2,33.6v5.3h-4.9v-5.3H16.2z M11.4,47.6h4.9v5.3h-4.9V47.6z M42.6,60.7
				c-3.6,0-6.6-3-6.6-6.6s3-6.6,6.6-6.6c3.6,0,6.6,3,6.6,6.6S46.3,60.7,42.6,60.7z"/>
			<path id="XMLID_4_" class="st1" d="M45.2,51.9l-2.8,2.8l-1.2-1.2c-0.3-0.3-0.9-0.3-1.3,0c-0.3,0.3-0.3,0.9,0,1.3l1.9,1.9
				c0.2,0.2,0.4,0.3,0.6,0.3s0.5-0.1,0.6-0.3l3.4-3.4c0.3-0.3,0.3-0.9,0-1.3C46.1,51.6,45.5,51.6,45.2,51.9z"/>
			<path id="XMLID_3_" class="st1" d="M10.4,29c0.2-0.2,0.3-0.4,0.3-0.6c0-0.2-0.1-0.5-0.3-0.6c-0.2-0.2-0.4-0.3-0.6-0.3
				c-0.2,0-0.5,0.1-0.6,0.3c-0.2,0.2-0.3,0.4-0.3,0.6c0,0.2,0.1,0.5,0.3,0.6s0.4,0.3,0.6,0.3C10,29.3,10.2,29.2,10.4,29z"/>
		</g>
	</g>
</g>
</svg>
