<?xml version="1.0" encoding="utf-8"?>
<!-- Generator: Adobe Illustrator 24.2.3, SVG Export Plug-In . SVG Version: 6.00 Build 0)  -->
<svg version="1.1" id="Capa_1" xmlns="http://www.w3.org/2000/svg" xmlns:xlink="http://www.w3.org/1999/xlink" x="0px" y="0px"
	 width="80px" height="80px" viewBox="0 0 80 80" style="enable-background:new 0 0 80 80;" xml:space="preserve">
<style type="text/css">
	.st0{opacity:0.15;}
	.st1{fill:url(#SVGID_1_);}
	.st2{fill:#6A2A83;}
</style>
<g>
	<g>
		<g class="st0">
			<linearGradient id="SVGID_1_" gradientUnits="userSpaceOnUse" x1="15.4492" y1="40.415" x2="76.9495" y2="40.415">
				<stop  offset="0" style="stop-color:#E21982"/>
				<stop  offset="0.4529" style="stop-color:#A52283"/>
				<stop  offset="0.8153" style="stop-color:#7A2883"/>
				<stop  offset="1" style="stop-color:#6A2A83"/>
			</linearGradient>
			<path class="st1" d="M73.7,26.1c0,0-4-7.8-12.8-8.9c-8.8-1.2-15,4.5-21.5,7.3c-3.4,1.5-7.3,0.9-10.9,1.7
				c-11.5,2.3-15.9,16.9-11.1,25.3c4.2,7.2,11.5,10.9,22.7,11.8c11.2,0.9,19,1.9,29-5.2C79,51,78.3,36.3,73.7,26.1z"/>
		</g>
	</g>
	<g>
		<g>
			<path class="st2" d="M51.9,32.3c1.6-1.1,2.7-3,2.7-5.2v-2.3v-2.3c0-3.5-2.8-6.3-6.3-6.3s-6.3,2.8-6.3,6.3v2.3v2.3
				c0,2.1,1.1,4,2.7,5.2c-2.8,0.9-5.1,2.7-6.7,5v-1.4c0-3.5-2.8-6.3-6.3-6.3s-6.3,2.8-6.3,6.3v1.4c-1.6-2.3-3.9-4.1-6.7-5
				c1.6-1.1,2.7-3,2.7-5.2v-4.7c0-3.5-2.8-6.3-6.3-6.3c-3.1,0-5.7,2.3-6.2,5.3c0,0.3-0.1,0.6-0.1,1v4.7c0,2.1,1.1,4,2.7,5.2
				c-5,1.6-8.7,6.1-8.7,11.3v3.7c0,0.5,0.4,0.8,0.8,0.8h4.6c0.5,0,0.8-0.4,0.8-0.8c0-0.5-0.4-0.8-0.8-0.8H4.7v-2.8
				c0-2.6,1.1-5.2,3.2-7.1c1.2-1.1,2.6-2,4.2-2.5l1,1.9l-1.4,6.3c-0.1,0.3,0,0.6,0.3,0.8l2.8,2.6c0.2,0.1,0.4,0.2,0.6,0.2
				c0.2,0,0.4-0.1,0.6-0.2l2.8-2.6c0.2-0.2,0.3-0.5,0.3-0.8l-1.4-6.3l1-1.9c1.5,0.5,3,1.4,4.2,2.5c1.5,1.4,2.5,3.2,2.9,5
				c0,0.2,0.1,0.3,0.1,0.5c0.1,0.5,0.1,1,0.1,1.6v2.8H11.2c-0.5,0-0.8,0.4-0.8,0.8c0,0.5,0.4,0.8,0.8,0.8h12.7
				c-2.6,2.2-4.4,5.4-4.4,8.9v3.7c0,0.5,0.4,0.8,0.8,0.8H25c0.5,0,0.8-0.4,0.8-0.8c0-0.5-0.4-0.8-0.8-0.8h-3.7V57
				c0-2.6,1.1-5.2,3.2-7.1c1.2-1.1,2.6-2,4.2-2.5l1,1.9l-1.4,6.3c-0.1,0.3,0,0.6,0.3,0.8l2.8,2.6c0.2,0.1,0.4,0.2,0.6,0.2
				c0.2,0,0.4-0.1,0.6-0.2l2.8-2.6c0.2-0.2,0.3-0.5,0.3-0.8L34,49.3l1-1.9c1.5,0.5,3,1.4,4.2,2.5c2.1,1.9,3.2,4.5,3.2,7.1v2.8H27.8
				c-0.5,0-0.8,0.4-0.8,0.8c0,0.5,0.4,0.8,0.8,0.8h15.4c0.5,0,0.8-0.4,0.8-0.8V57c0-3.5-1.7-6.7-4.4-8.9H44c0.5,0,0.8-0.4,0.8-0.8
				c0-0.5-0.4-0.8-0.8-0.8h-6.2v-2.8c0-0.5,0-1,0.1-1.6c0-0.2,0.1-0.3,0.1-0.5c0.4-1.9,1.4-3.6,2.9-5c1.2-1.1,2.6-2,4.2-2.5l1,1.9
				l-1.4,6.3c-0.1,0.3,0,0.6,0.3,0.8l2.8,2.6c0.2,0.1,0.4,0.2,0.6,0.2s0.4-0.1,0.6-0.2l2.8-2.6c0.2-0.2,0.3-0.5,0.3-0.8l-1.4-6.3
				l1-1.9c1.5,0.5,3,1.4,4.2,2.5c2.1,1.9,3.2,4.5,3.2,7.1v2.8H46.8c-0.5,0-0.8,0.4-0.8,0.8c0,0.5,0.4,0.8,0.8,0.8h13
				c0.5,0,0.8-0.4,0.8-0.8v-3.7C60.6,38.4,56.9,33.9,51.9,32.3z M10.7,22.5c0-2.5,2.1-4.6,4.6-4.6s4.6,2.1,4.6,4.6v1.4
				c-1.9-0.5-2.7-2.5-2.8-2.6c-0.1-0.3-0.4-0.5-0.7-0.5c-0.3,0-0.6,0.1-0.8,0.4c0,0-1.3,2.4-4.9,2.7L10.7,22.5z M15.3,43.8l-1.9-1.7
				l1.3-5.5h1.3l1.3,5.5L15.3,43.8z M13.8,33.6c0.2,0,0.3,0,0.5-0.1c0,0,0,0,0.1,0c0.1,0,0.3,0,0.4,0c0,0,0.1,0,0.1,0
				c0.1,0,0.2,0,0.3,0c0,0,0.1,0,0.1,0s0.1,0,0.1,0c0.1,0,0.2,0,0.3,0c0,0,0.1,0,0.1,0c0.1,0,0.3,0,0.4,0c0,0,0,0,0.1,0
				c0.2,0,0.3,0,0.5,0.1L16.1,35h-1.6L13.8,33.6z M15.5,31.8c-0.1,0-0.1,0-0.2,0c0,0,0,0,0,0h0c-0.1,0-0.1,0-0.2,0
				c-2.5-0.1-4.4-2.1-4.4-4.6v-1.5c2.9-0.2,4.6-1.5,5.5-2.5c0.7,1,1.8,2.2,3.7,2.5v1.6C19.9,29.6,17.9,31.7,15.5,31.8z M27.2,35.9
				L27.2,35.9c0-2.5,2.1-4.6,4.6-4.6c0.5,0,0.9,0.1,1.4,0.2c1.9,0.6,3.2,2.3,3.2,4.4v1.4c-1.9-0.5-2.7-2.5-2.8-2.6
				c-0.1-0.3-0.4-0.5-0.7-0.5c-0.3,0-0.6,0.1-0.8,0.4c0,0-1.3,2.4-4.9,2.7L27.2,35.9L27.2,35.9z M27.5,46v-0.9
				c0.2,0.2,0.5,0.4,0.7,0.6C28,45.8,27.8,45.9,27.5,46z M31.8,57.3l-1.9-1.7l1.3-5.5h1.3l1.3,5.5L31.8,57.3z M30.3,47
				c0.2,0,0.3,0,0.5-0.1c0,0,0,0,0.1,0c0.1,0,0.3,0,0.4,0c0,0,0.1,0,0.1,0c0.1,0,0.2,0,0.3,0c0,0,0.1,0,0.1,0s0.1,0,0.1,0
				c0.1,0,0.2,0,0.3,0c0,0,0.1,0,0.1,0c0.1,0,0.3,0,0.4,0c0,0,0,0,0.1,0c0.2,0,0.3,0,0.5,0.1l-0.7,1.4H31L30.3,47z M36.1,46
				c-0.2-0.1-0.5-0.2-0.7-0.3c0.3-0.2,0.5-0.4,0.7-0.6V46z M36.4,40.6c0,0.2,0,0.5-0.1,0.7c0,0.1-0.1,0.3-0.1,0.4
				c-0.5,2-2.2,3.4-4.3,3.5c-0.1,0-0.1,0-0.2,0c0,0,0,0,0,0c-0.1,0-0.1,0-0.2,0c-2.1-0.1-3.8-1.6-4.3-3.5c0-0.1-0.1-0.3-0.1-0.4
				c0-0.2-0.1-0.5-0.1-0.7V39c2.9-0.2,4.6-1.5,5.5-2.5c0.7,1,1.8,2.2,3.7,2.5L36.4,40.6L36.4,40.6z M43.7,22.5
				c0-2.5,2.1-4.6,4.6-4.6s4.6,2.1,4.6,4.6v1.4c-1.9-0.5-2.7-2.5-2.8-2.6c-0.1-0.3-0.4-0.5-0.7-0.5c-0.3,0-0.6,0.1-0.8,0.4
				c0,0-1.3,2.4-4.9,2.7L43.7,22.5L43.7,22.5z M48.3,43.8l-1.9-1.7l1.3-5.5H49l1.3,5.5L48.3,43.8z M46.8,33.6c0.2,0,0.3,0,0.5-0.1
				c0,0,0,0,0.1,0c0.1,0,0.3,0,0.4,0c0,0,0.1,0,0.1,0c0.1,0,0.2,0,0.3,0c0,0,0.1,0,0.1,0c0,0,0.1,0,0.1,0c0.1,0,0.2,0,0.3,0
				c0,0,0.1,0,0.1,0c0.1,0,0.3,0,0.4,0c0,0,0,0,0.1,0c0.2,0,0.3,0,0.5,0.1L49.1,35h-1.6L46.8,33.6z M48.5,31.8c-0.1,0-0.1,0-0.2,0
				c0,0,0,0,0,0h0c-0.1,0-0.1,0-0.2,0c-2.5-0.1-4.4-2.1-4.4-4.6v-1.5c2.9-0.2,4.6-1.5,5.5-2.5c0.7,1,1.8,2.2,3.7,2.5v1.6
				C53,29.6,51,31.7,48.5,31.8z"/>
		</g>
	</g>
</g>
</svg>
