<?xml version="1.0" encoding="utf-8"?>
<!-- Generator: Adobe Illustrator 24.2.3, SVG Export Plug-In . SVG Version: 6.00 Build 0)  -->
<svg version="1.1" id="Capa_1" xmlns="http://www.w3.org/2000/svg" xmlns:xlink="http://www.w3.org/1999/xlink" x="0px" y="0px"
	 width="487.4px" height="359.7px" viewBox="0 0 487.4 359.7" style="enable-background:new 0 0 487.4 359.7;" xml:space="preserve"
	>
<style type="text/css">
	.st0{opacity:0.15;fill:url(#SVGID_1_);}
	.st1{fill:#FAB9AF;}
	.st2{fill:#22193F;}
	.st3{fill:#E21982;}
	.st4{fill:#E8948B;}
	.st5{fill:#6A2A83;}
	.st6{opacity:8.000000e-02;}
	.st7{fill:#0C0A19;}
	.st8{fill:#C4C4C4;}
	.st9{fill:#FFFFFF;}
	.st10{opacity:0.4;fill:#6A2A83;enable-background:new    ;}
	.st11{fill:none;stroke:#4D4D4D;stroke-width:0.7339;stroke-miterlimit:10;}
</style>
<g>
	<linearGradient id="SVGID_1_" gradientUnits="userSpaceOnUse" x1="50.1487" y1="167.0015" x2="469.2562" y2="167.0015">
		<stop  offset="0" style="stop-color:#E21982"/>
		<stop  offset="0.4529" style="stop-color:#A52283"/>
		<stop  offset="0.8153" style="stop-color:#7A2883"/>
		<stop  offset="1" style="stop-color:#6A2A83"/>
	</linearGradient>
	<path class="st0" d="M57.1,334c0,0-23.3-49.5,15.5-80.1s-32.4-61.7-6.7-99.7s113-7.2,110.8-77.7C174.5,6,247.9-13.1,272.1,8.2
		s27.5,125,97.1,113.9C438.7,111,504,258,448.3,333.8L57.1,334z"/>
	<g>
		<path class="st1" d="M231,308l-0.8,9.6c0,2-0.6,4.8,0,6.6l0.8,3c0.7,2.4-1.1,4.8-3.7,4.8c-6.5,0-17.7,0-20.6,0
			c-0.5,0-0.9-0.3-1-0.8c-0.2-2.8,7.8-4.7,13.9-7c4.6-1.8,4.4-10.1,3.8-15c-0.2-1.8,1.3-3.4,3.2-3.3l0,0
			C228.3,306.1,231,306.5,231,308z"/>
		<path class="st1" d="M279.2,306.2l3.3,11c0.1,0.5,0.4,0.9,0.6,1.4l2.3,3.5c1.5,2.2,0.4,5.2-2.1,6c0,0-4.7,1.7-9.6,3.3
			c-5,1.6-11.3,0.3-11.3-1c0-2.9,2.7-0.6,7.3-3.7c1.5-1,3.1-2.1,4.5-3.2c3.9-3.1,0.5-10.9-1.9-15.3c-0.9-1.6,0.1-3.5,1.8-3.9
			l1.1-0.2C277,303.6,278.7,304.6,279.2,306.2z"/>
		<path class="st1" d="M222.3,213.7c-5.6-0.3-0.9,1.1-6.5,0.5c0.9,10.1-7.8,20.7-5.1,34.6c4.3,22.4,13.2,65.2,13.2,65.2
			c2.2,1,4.5,1.2,6.8,0.6c0,0,0.7-18.9,1.1-39.2c0.4-19.5,0.5-40.3,1.7-47.1c0.6-3.5,1.4-8.4,2.3-13.8
			C231.3,214.3,226.8,214,222.3,213.7z"/>
		<path class="st1" d="M265.1,236.6c1.1-6.9-3.8-14.7-2.8-22.4c-8.3,0.1-10.4,0.5-18.7,0.5c-3.7,0,3.2-1.1-0.5-1.3
			c-0.5,13.5-9.2,29-1.1,43.1c16.1,28.2,33,57.5,33,57.5c2.2,0.1,4.2-0.7,6-2.1c0,0-2.8-12.8-6.9-27.7
			C269.3,267.2,263.4,247.1,265.1,236.6z"/>
	</g>
	<path class="st2" d="M212.6,202.2c0,0-8,40.1-4,51.3H235v-25.7l4,25.7h28.1c0,0,4.8-40.1-4.8-52.1L212.6,202.2z"/>
	<path class="st1" d="M221.5,112.9c-1.3,1.6-2.3,3.3-2.9,3.9c-0.2,0.2-1.1,0.7-1.3,0.8c-0.7,0.4-1.8,1-2.1,1.7l-1.5,3
		c-0.7,1.5-1.9,2.2-3.4,1.5l0,0c-1.6-0.8-1.7-2.5-0.7-3.9l1-2.1c0.7-1.2,0.9-2.6,1.1-4c0.4-2.8,2.4-5.4,4.3-7.4
		c1.1-1.2,3.4-1.2,6.4-1.1c1.5,0.1,3.7,0.6,2.2,1.7c-1.3,0.9-5.8,1-6.6,5.4c0,0.2-0.1,0.8,0.1,0.9c0.7,0.4,1.6-1.2,2.3-1.8
		c1-0.9,2-1,2.4-0.6C223.4,111.3,222.4,111.7,221.5,112.9z"/>
	<path class="st3" d="M197.7,161.5c5.5-2.8,13.6-32,16.9-38.6c0.4-0.9,0.2-2-0.7-2.5c-0.5-0.3-1-0.7-1.5-0.9
		c-0.4-0.2-0.9-0.4-1.4-0.6c-0.7-0.2-1.4,0-1.9,0.6c-3.3,4.6-17.6,24.4-22.7,35.1C186.5,154.6,186.3,167.3,197.7,161.5z"/>
	<polygon class="st1" points="210.8,202.5 221.9,124.6 251.8,120.5 267.4,202 	"/>
	<path class="st3" d="M209.7,200.5l12.2-76l29.9-4.1l16.1,80.2c0.3,1.5-0.7,3-2.2,3.3c-5.6,1.1-19,3.3-34.1,3.3
		c-11.2,0-17.5-2.2-20.4-3.6C210.1,203.1,209.5,201.8,209.7,200.5z"/>
	<g>
		<path class="st1" d="M234.2,88.7c6.7,0,9.2,4.8,9.3,13.5c0,3.3-1.4,6.6-2.6,8.6c-0.9,1.5-1.1,3.4-0.6,5.1l1.5,5
			c1,4.6-1.2,7.1-4.4,8c-1.6,0.5-3.5,0.1-4.9-0.8c-1.7-1.1-1.8-3.4-1.5-5.3l0.4-1.4c0.5-1.9-0.6-4-2.5-4.4
			c-5.1-1.1-5.9-6.5-7.3-14.8C220.1,93.6,227.5,88.7,234.2,88.7z"/>
		<path class="st1" d="M239.8,102.4c0,2,0.8,3.7,2.7,3.7s3.2-2.8,3.2-4.8c0-2-1.3-2.5-3.2-2.5S239.8,100.4,239.8,102.4z"/>
	</g>
	<path class="st4" d="M240.6,111.4c0,0-5,6.9-11.2,5.9c0,0,1.3,0.6,1.6,1.6C231,118.9,236.9,118.5,240.6,111.4z"/>
	<g>
		<g>
			<g>
				<path class="st5" d="M263.4,273.5c-3.7,1.1-6.4,3.4-8.1,6.7c-1.8,3.3-2.1,6.9-1,10.5c1.1,3.7,3.4,6.4,6.7,8.1
					c3.3,1.8,6.9,2.1,10.5,1c1.4-0.4,2.8-1.1,3.9-1.9c1.8-1.2,3.2-2.8,4.2-4.8c1.8-3.3,2.1-6.9,1-10.5c-1.1-3.6-3.4-6.4-6.7-8.1
					C270.6,272.7,267.1,272.4,263.4,273.5z"/>
			</g>
		</g>
		<g class="st6">
			<g>
				<path class="st7" d="M273.9,274.4c-3.3-1.8-6.9-2.1-10.5-1c-1.2,0.4-2.3,0.8-3.2,1.4c2.6-0.2,5.1,0.3,7.6,1.5
					c3.3,1.8,5.6,4.5,6.7,8.1c1.1,3.7,0.8,7.2-1,10.5c-1.1,2-2.5,3.6-4.2,4.8c-0.2,0.1-0.4,0.3-0.7,0.4c1-0.1,2-0.3,2.9-0.6
					c1.4-0.4,2.8-1.1,3.9-1.9c1.8-1.2,3.2-2.8,4.2-4.8c1.8-3.3,2.1-6.9,1-10.5C279.5,278.9,277.3,276.2,273.9,274.4z"/>
			</g>
		</g>
		<g>
			<g>
				<path class="st5" d="M275.5,156.1c-10.3-4.9-22.2-5.4-35.4-1.3c-13.2,4.1-22.8,11.2-28.7,21.1c-5.1,8.6-6.5,18.3-4.3,28.7
					c0.4,1.8,1.5,3.3,3,4.2c1.6,0.9,3.4,1.1,5.1,0.6l7.9-2.4c3.1-1,5-4.1,4.4-7.4c-1.1-5.7-0.4-10.6,2.1-14.9c3.1-5.2,8.4-9,16-11.4
					c7.5-2.3,14.1-2.1,19.6,0.7c5.4,2.8,9.3,7.9,11.6,15.3c3.1,10.2,2.3,18-2.4,23.1c-5,5.4-14,10.1-26.8,13.9l-3.4,1
					c-3.4,1-5.3,4.7-4.3,8l9.1,29.6c0.5,1.6,1.6,3,3.1,3.8c1.5,0.8,3.3,1,4.9,0.5l8-2.5c0.6-0.2,1.2-0.5,1.8-0.9
					c2.3-1.6,3.3-4.4,2.5-7.2l-5.9-19.2c-0.1-0.2,0.1-0.5,0.3-0.6c14.7-5,25.1-11.8,30.9-20.2c6.1-9,7.1-20.6,2.8-34.4
					C293.3,170.6,285.9,161.1,275.5,156.1z"/>
			</g>
		</g>
		<g class="st6">
			<g>
				<path class="st7" d="M275.5,156.1c-10.3-4.9-22.2-5.4-35.4-1.3c-8.2,2.5-15,6.2-20.4,11c3.3-1.8,7-3.3,11-4.5
					c13.2-4.1,25.1-3.6,35.4,1.3c10.4,5,17.8,14.5,22,28.2c4.3,13.8,3.3,25.4-2.8,34.4c-1.8,2.6-4,5-6.6,7.3
					c7.1-3.9,12.4-8.5,16-13.8c6.1-9,7.1-20.6,2.8-34.4C293.3,170.6,285.9,161.1,275.5,156.1z"/>
			</g>
		</g>
	</g>
	<path class="st3" d="M251.7,120.7c0,0,19.1,10.3,32.3,28.6c13.2,18.3-13.2,38.2-28.6,42.6s-16.9-0.7-3.7-9.5
		c13.2-8.8,30.8-14.7,22-25c-8.8-10.3-25-25.7-25-25.7L251.7,120.7z"/>
	<path class="st1" d="M237.7,184.5c2-0.1,4-0.3,4.8-0.3c0.3,0,1.2,0.4,1.5,0.4c0.8,0.2,1.9,0.7,2.7,0.5l3.3-0.8c1.6-0.4,3,0,3.4,1.6
		l0,0c0.4,1.7-0.8,2.8-2.5,3.1l-2.3,0.6c-1.4,0.2-2.6,1-3.8,1.7c-2.4,1.5-5.7,1.7-8.4,1.5c-1.7-0.1-3.1-1.8-4.9-4.2
		c-0.9-1.2-1.9-3.3-0.1-2.8c1.5,0.4,4.5,3.8,8.4,1.5c0.2-0.1,0.7-0.4,0.6-0.7c-0.2-0.8-2-0.5-2.9-0.6c-1.3-0.2-2-0.9-2-1.5
		C235.4,184.1,236.3,184.5,237.7,184.5z"/>
	<path class="st3" d="M219.8,142.1c0,0-16.2,17.4-23.5,20.1c-7.2,2.7-9.5-6.9,25.7-37.7L219.8,142.1z"/>
	<path class="st8" d="M467.9,359.7H42.8c-7.6,0-13.8-6.2-13.8-13.8l0,0c0-7.6,6.2-13.8,13.8-13.8h425.1c7.6,0,13.8,6.2,13.8,13.8
		l0,0C481.7,353.5,475.5,359.7,467.9,359.7z"/>
	<path class="st2" d="M243.3,98.7c0,0-0.7,7.2-1,8.7c-0.3,1.5-1.6,2.7-1.6,2.7s0.8-2.2,0.7-3.7c-0.1-1.4,0.4-7.2-0.7-7.5
		c-1.1-0.4-3.1-0.3-3.3-3.5c-0.2-3.2-3.9-2.6-4.6-2.3c-0.7,0.2,0.3-0.8,0.3-0.8l-3.5,0.8l1.7-1.3l-2.4,1.3l-2-0.9l0.7,0.8l-2.3-0.5
		l-1.9,1.4c0,0-1.1,4.5-2.1,6.7c0,0-3.3-7.5-0.4-12.7c2.9-5.2,9.4-2.2,12.9-4.1c3.6-1.8,14.8,3,11.4,15.7
		C245.2,99.6,244.5,99,243.3,98.7z"/>
	<path class="st2" d="M230.4,324.9l-9.8-1.2c0,0-17.7,4.3-15.3,8.3l0.8,1.3h23C229.2,333.3,235,330.9,230.4,324.9z"/>
	<path class="st2" d="M284,319l-9.7,1.7c0,0-15.7,9.2-12.3,12.3l1.1,1l22.1-6.6C285.2,327.4,290.1,323.4,284,319z"/>
	<ellipse class="st3" cx="182.8" cy="78.4" rx="34.2" ry="25.5"/>
	<polygon class="st3" points="209,91.4 212.4,100.9 202.9,96.1 	"/>
	<circle class="st9" cx="172" cy="77.1" r="2.7"/>
	<circle class="st9" cx="179.2" cy="77.1" r="2.7"/>
	<circle class="st9" cx="186.5" cy="77.1" r="2.7"/>
	<circle class="st9" cx="193.7" cy="77.1" r="2.7"/>
	<path class="st10" d="M94.9,319.3c0,0-47.5-43.2-94.9-10.8c0,0,23.3-29.8,56.8-25.3C90.2,287.6,94.9,319.3,94.9,319.3z"/>
	<path class="st10" d="M93.5,321.1c0,0-6.2-63.9-63.1-71.7c0,0,37.3-6.5,59.1,19.3C111.3,294.4,93.5,321.1,93.5,321.1z"/>
	<path class="st2" d="M93.9,320.8c0,0-22.2-60.2-79.3-53.3c0,0,34.4-15.7,62.1,3.6S93.9,320.8,93.9,320.8z"/>
	<path class="st5" d="M114.4,320.7c0,6.7-5.4,12.1-12.1,12.1H83.6c-6.7,0-12.1-5.4-12.1-12.1l0,0c0-6.7,5.4-12.1,12.1-12.1h18.7
		C108.9,308.5,114.4,314,114.4,320.7L114.4,320.7z"/>
	<path class="st5" d="M455.8,327.4c0,2.7-2.2,4.8-4.8,4.8h-18.5c-2.7,0-4.8-2.2-4.8-4.8v-43.3c0-2.7,2.2-4.8,4.8-4.8h18.5
		c2.7,0,4.8,2.2,4.8,4.8V327.4z"/>
	<path class="st10" d="M443.9,229.5c0,0-15.2,30.9,7.2,36.1c22.4,5.3,23-18,20.7-27.6c-2.3-9.6,33.2-35.4,3.9-58.2
		C446.5,157,423.6,217.8,443.9,229.5z"/>
	<path class="st10" d="M415.6,246.3c0,0-0.7,20.3,12.6,17.7c13.3-2.6,8-15.3,4.5-19.9c-3.6-4.6,9.3-27.1-12-32.3
		C399.5,206.6,401.9,244.9,415.6,246.3z"/>
	<line class="st11" x1="417.9" y1="227.2" x2="434.4" y2="279.4"/>
	<polyline class="st11" points="427.5,237.8 424,246.5 416.1,242.2 	"/>
	<line class="st11" x1="461.8" y1="197.6" x2="447.6" y2="279.4"/>
	<polyline class="st11" points="470.1,210 458.4,217.4 450.8,207.2 	"/>
	<polyline class="st11" points="466.9,227.1 455.2,234.5 447.6,224.4 	"/>
	<circle class="st3" cx="368.2" cy="279.4" r="17.9"/>
	<circle class="st5" cx="126.8" cy="176.1" r="16.6"/>
	<rect x="126.6" y="256.2" transform="matrix(0.866 -0.5 0.5 0.866 -117.2943 108.227)" class="st10" width="33.5" height="33.5"/>
	<polyline class="st3" points="102.6,235.6 120.3,207.2 148.7,224.8 	"/>
	<rect x="345.4" y="209.6" transform="matrix(0.866 -0.5 0.5 0.866 -64.6348 211.4142)" class="st10" width="33.5" height="33.5"/>
	<polyline class="st3" points="331.1,193.7 348.8,165.3 377.2,182.9 	"/>
</g>
</svg>
